HIERARCHY
ROOT root
{
	OFFSET 0.000000 0.000000 0.000000
	CHANNELS 6 Xposition Yposition Zposition Zrotation Yrotation Xrotation
	JOINT lhip
	{
		OFFSET 0.058581 -0.082280 -0.017664
		CHANNELS 3 Zrotation Yrotation Xrotation
		JOINT lknee
		{
			OFFSET 0.043451 -0.386469 0.008037
			CHANNELS 3 Zrotation Yrotation Xrotation
			JOINT lankle
			{
				OFFSET -0.014790 -0.426874 -0.037428
				CHANNELS 3 Zrotation Yrotation Xrotation
				JOINT ltoe
				{
					OFFSET 0.041054 -0.060286 0.122042
					CHANNELS 3 Zrotation Yrotation Xrotation
					End Site
					{
						OFFSET 0.000000 0.000000 0.000000
					}
				}
			}
		}
	}
	JOINT rhip
	{
		OFFSET -0.060310 -0.090513 -0.013543
		CHANNELS 3 Zrotation Yrotation Xrotation
		JOINT rknee
		{
			OFFSET -0.043257 -0.383688 -0.004843
			CHANNELS 3 Zrotation Yrotation Xrotation
			JOINT rankle
			{
				OFFSET 0.019056 -0.420046 -0.034562
				CHANNELS 3 Zrotation Yrotation Xrotation
				JOINT rtoe
				{
					OFFSET -0.034840 -0.062106 0.130323
					CHANNELS 3 Zrotation Yrotation Xrotation
					End Site
					{
						OFFSET 0.000000 0.000000 0.000000
					}
				}
			}
		}
	}
	JOINT lowerback
	{
		OFFSET 0.004439 0.124404 -0.038385
		CHANNELS 3 Zrotation Yrotation Xrotation
		JOINT upperback
		{
			OFFSET 0.004488 0.137956 0.026820
			CHANNELS 3 Zrotation Yrotation Xrotation
			JOINT chest
			{
				OFFSET -0.002265 0.056032 0.002855
				CHANNELS 3 Zrotation Yrotation Xrotation
				JOINT lowerneck
				{
					OFFSET -0.013390 0.211636 -0.033468
					CHANNELS 3 Zrotation Yrotation Xrotation
					JOINT upperneck
					{
						OFFSET 0.010113 0.088937 0.050410
						CHANNELS 3 Zrotation Yrotation Xrotation
						End Site
						{
							OFFSET 0.000000 0.000000 0.000000
						}
					}
				}
				JOINT lclavicle
				{
					OFFSET 0.071702 0.114000 -0.018898
					CHANNELS 3 Zrotation Yrotation Xrotation
					JOINT lshoulder
					{
						OFFSET 0.122921 0.045205 -0.019046
						CHANNELS 3 Zrotation Yrotation Xrotation
						JOINT lelbow
						{
							OFFSET 0.255332 -0.015649 -0.022946
							CHANNELS 3 Zrotation Yrotation Xrotation
							JOINT lwrist
							{
								OFFSET 0.265709 0.012698 -0.007375
								CHANNELS 3 Zrotation Yrotation Xrotation
								End Site
								{
									OFFSET 0.000000 0.000000 0.000000
								}
							}
						}
					}
				}
				JOINT rclavicle
				{
					OFFSET -0.082954 0.112472 -0.023707
					CHANNELS 3 Zrotation Yrotation Xrotation
					JOINT rshoulder
					{
						OFFSET -0.113228 0.046853 -0.008472
						CHANNELS 3 Zrotation Yrotation Xrotation
						JOINT relbow
						{
							OFFSET -0.260127 -0.014369 -0.031269
							CHANNELS 3 Zrotation Yrotation Xrotation
							JOINT rwrist
							{
								OFFSET -0.269108 0.006794 -0.006027
								CHANNELS 3 Zrotation Yrotation Xrotation
								End Site
								{
									OFFSET 0.000000 0.000000 0.000000
								}
							}
						}
					}
				}
			}
		}
	}
}
MOTION
Frames: 11
Frame Time: 0.033333
0.264488 0.175707 0.996408 135.981572 4.589817 87.399346 6.774145 5.074724 -1.633027 -3.162551 1.953365 4.389259 5.547346 10.787044 -7.124554 0.000000 -0.000000 0.000000 -2.033261 -0.029162 -11.348923 0.907617 6.491990 11.522134 6.302231 -2.487635 -3.665118 0.000000 -0.000000 0.000000 -0.673535 -0.692896 13.817231 0.704874 -3.395043 -1.400690 -0.875269 -1.992175 0.592643 -3.541469 4.864080 0.037796 1.315134 7.198992 19.118254 -17.348099 -12.173939 -7.263194 -37.077653 -32.070829 5.925446 83.969086 -76.685424 -70.189711 26.488247 -2.878608 -15.506614 13.778159 3.114946 -6.579707 33.656305 5.777515 4.723733 -118.056859 56.607579 -110.680022 -4.401005 10.218273 -47.617883 
0.258141 0.172283 0.997075 133.571124 4.955236 87.486522 7.128541 5.452225 -1.883461 -3.206143 3.327093 4.259682 5.492603 11.330606 -7.004311 0.000000 -0.000000 0.000000 -1.604490 -0.049870 -11.507255 1.021046 7.478551 9.599779 6.874222 -1.602923 -2.153690 0.000000 -0.000000 0.000000 -0.909466 -0.635374 13.364203 0.741434 -3.686304 -1.194277 -0.723643 -2.139424 0.739509 -3.995391 4.685588 0.389446 1.457591 7.362725 18.905441 -17.094283 -12.650865 -7.439241 -37.575760 -32.941782 6.519237 78.375012 -76.715721 -65.431885 27.774867 -2.599872 -14.587959 13.138643 2.648133 -6.521334 32.049969 5.517174 4.228870 -117.891874 57.024709 -111.361914 -5.384478 9.550737 -48.480033 
0.252217 0.168377 0.997783 131.217872 5.197389 87.554670 7.395366 5.768123 -2.169301 -3.236992 4.640261 4.254137 5.480060 11.807908 -6.937401 0.000000 -0.000000 0.000000 -1.127260 0.013393 -11.961022 1.222299 8.109261 8.663584 7.402638 -1.401308 -1.542304 0.000000 -0.000000 0.000000 -1.261721 -0.639529 13.214007 0.826942 -3.943938 -1.142873 -0.474768 -2.279468 0.646377 -4.359498 4.545904 0.630703 1.493120 7.857934 18.909196 -16.787525 -13.245463 -7.255585 -37.952675 -33.541298 6.795877 72.490960 -76.525333 -60.402107 28.545846 -2.166838 -14.362364 12.321806 2.467512 -6.325962 30.689815 4.924150 3.843658 -118.450376 56.579590 -112.714105 -6.401806 9.010980 -50.087116 
0.247191 0.164925 0.998207 129.009594 5.315211 87.311934 7.528555 6.225713 -2.030934 -3.165391 5.590480 4.160988 5.470371 12.274939 -6.847548 0.000000 -0.000000 0.000000 -0.576038 0.052646 -12.436796 1.365009 7.920718 9.370541 6.848517 -2.105343 -3.004611 0.000000 -0.000000 0.000000 -1.410900 -1.070658 13.441916 0.750690 -4.397390 -0.901607 -0.612388 -1.946288 0.364214 -4.533135 4.560404 0.786459 1.832522 8.298859 18.753899 -16.039571 -13.890792 -7.183704 -38.178847 -33.767843 6.838892 67.003529 -76.329159 -55.748773 28.416584 -1.323370 -15.155836 11.533077 2.567496 -6.280151 29.942711 4.145246 3.208603 -118.901887 55.295703 -113.926915 -7.265756 9.027110 -51.126290 
0.242976 0.161679 0.998832 127.060910 5.383687 86.957386 7.573717 6.823569 -1.816214 -2.936344 6.181990 4.178681 5.352463 12.700844 -6.727049 0.000000 -0.000000 0.000000 -0.066448 0.276354 -12.549256 1.288936 6.872213 10.730269 5.840339 -3.495194 -5.001603 0.000000 -0.000000 0.000000 -1.768952 -1.052322 13.977232 0.803678 -3.914284 -1.437383 -0.206123 -2.760389 0.673061 -4.602615 4.237037 0.881653 1.969828 8.892251 18.908752 -15.833579 -14.833628 -6.701063 -38.115876 -34.034765 6.575963 60.498802 -76.215496 -48.445366 27.459920 -1.582829 -14.932180 10.686381 2.423132 -6.095818 28.797843 3.543301 2.021776 -119.043556 53.665091 -113.716155 -7.520020 9.625094 -51.157911 
0.239528 0.158976 0.999561 125.361376 5.318146 86.427976 7.477322 7.501865 -1.238932 -2.687188 6.416484 3.921412 5.171781 13.129036 -6.408341 0.000000 -0.000000 0.000000 0.084441 0.410447 -12.026549 1.295777 5.681748 12.350331 5.267638 -4.506052 -6.808146 0.000000 -0.000000 0.000000 -1.828514 -1.588543 14.409726 0.747234 -4.125456 -1.303616 -0.327487 -2.806243 0.690262 -4.533940 4.518552 1.050720 2.092673 9.345540 18.987153 -15.413353 -15.574100 -6.685261 -37.670620 -33.657612 6.348716 55.339615 -76.159948 -41.931761 26.463192 -1.842108 -14.114484 10.026304 2.577068 -6.311301 28.025518 2.841407 0.811024 -118.728820 52.146916 -112.746847 -6.892913 10.050545 -50.912456 
0.236610 0.155927 1.000025 123.924363 5.176879 86.162582 7.350555 8.009028 -1.052359 -2.582480 6.385577 3.910047 4.920325 13.548442 -6.220329 0.000000 -0.000000 0.000000 0.138533 0.447659 -11.800899 1.363003 5.230133 14.750322 4.795562 -5.348347 -8.478819 0.000000 -0.000000 0.000000 -1.822391 -2.019917 14.552755 0.735321 -4.341647 -1.217097 -0.449918 -2.817944 0.736706 -4.641562 4.212894 1.555947 2.451912 9.895721 18.875514 -15.377727 -16.335453 -6.461824 -36.973327 -33.067446 6.167583 52.150498 -76.016684 -38.309673 26.033399 -1.991553 -13.798125 9.478940 2.489997 -6.943736 27.081053 1.693290 -0.638575 -117.811444 51.420394 -111.728141 -5.397479 10.597907 -50.278529 
0.234492 0.152704 1.000265 122.790349 4.926144 86.061768 7.164560 8.421710 -1.166426 -2.486892 6.492079 4.196401 4.766472 14.078033 -6.128839 0.000000 -0.000000 0.000000 0.060110 0.733685 -11.700342 1.553486 5.563800 17.755244 4.454932 -5.767375 -10.185951 0.000000 -0.000000 0.000000 -1.763260 -2.443429 14.384399 0.786377 -4.704134 -0.979419 -0.696362 -3.315984 0.837420 -4.329734 4.482906 1.811165 2.307678 10.243459 19.119583 -15.681619 -16.174793 -6.352238 -36.146031 -32.109452 5.963051 52.474392 -76.226283 -37.857895 24.276742 -2.834421 -13.543237 9.309788 1.973580 -7.277420 25.830468 1.627004 -1.814911 -115.715495 51.382316 -109.848838 -2.618213 11.095425 -51.242426 
0.233569 0.149082 1.000603 121.941033 4.642650 85.916578 7.050620 8.783009 -1.163235 -2.388882 6.500410 4.232528 4.892888 14.300164 -6.114605 0.000000 -0.000000 0.000000 -0.038011 1.385885 -11.294815 1.882636 6.382757 20.769369 4.567462 -5.879162 -11.879362 0.000000 -0.000000 0.000000 -1.671976 -2.800496 14.165135 0.742120 -4.806103 -0.606160 -0.880376 -3.900933 0.954460 -4.382089 4.063155 2.386638 2.468172 10.572903 18.902823 -16.351247 -16.257814 -5.686719 -34.790763 -30.986192 5.422386 56.101170 -76.738039 -41.050214 23.062857 -3.639159 -12.417145 9.256659 1.671632 -7.688206 24.783520 0.333561 -2.619547 -113.588470 51.373036 -109.094747 -0.466634 12.084870 -52.425039 
0.233631 0.144815 1.000752 121.552777 4.246840 85.640198 6.872224 8.932753 -1.009495 -2.347878 6.357016 4.258289 4.718610 14.547532 -6.025031 0.000000 -0.000000 0.000000 -0.321470 2.110671 -10.436386 2.404278 7.110543 23.352579 4.696505 -5.773858 -13.409066 0.000000 -0.000000 0.000000 -1.835166 -3.360772 14.084231 0.790281 -5.265589 0.158251 -1.081309 -4.151328 1.005597 -4.399676 3.943172 2.805632 2.407598 10.770493 18.374840 -16.875787 -15.945966 -5.444584 -33.798697 -30.153453 5.190316 60.030069 -77.239056 -44.988060 21.926166 -4.379480 -12.306269 9.501309 1.254306 -7.939307 23.962486 -0.766996 -2.858464 -112.176593 51.261917 -108.917959 1.377541 13.685425 -52.693007 
0.234295 0.139337 1.000107 121.591758 3.903805 85.567713 6.850070 8.934606 -1.125766 -2.397934 6.155045 4.262061 4.580214 14.615900 -5.972162 0.000000 -0.000000 0.000000 -0.529163 2.677422 -9.520165 2.924027 7.737591 25.239253 4.677495 -5.662202 -14.788005 0.000000 -0.000000 0.000000 -1.908576 -3.900832 13.916093 0.900770 -5.812951 0.717059 -1.211031 -4.481436 1.072264 -4.555884 3.822120 3.377264 2.369936 10.873840 18.136544 -17.261258 -15.699729 -4.775085 -33.222784 -29.467857 4.845676 64.707024 -77.414917 -49.555378 20.783955 -4.784305 -12.942295 9.449354 0.844984 -7.977944 23.727888 -2.102164 -2.845666 -111.583500 51.286346 -108.392324 2.779278 14.776326 -53.298359 
